<mxfile host="app.diagrams.net" modified="2023-10-18T12:01:29.965Z" agent="Mozilla/5.0 (Windows NT 10.0; Win64; x64) AppleWebKit/537.36 (KHTML, like Gecko) Chrome/118.0.0.0 Safari/537.36" etag="l0n0pb9JybSSEzhHCUXB" version="22.0.4" type="github">
  <diagram name="Página-1" id="wt1tVjkqUoS34hNePXYx">
    <mxGraphModel dx="1352" dy="739" grid="1" gridSize="10" guides="1" tooltips="1" connect="1" arrows="1" fold="1" page="1" pageScale="1" pageWidth="827" pageHeight="1169" math="0" shadow="0">
      <root>
        <mxCell id="0" />
        <mxCell id="1" parent="0" />
        <mxCell id="HcaCUsrrjCbPK7TLqMKt-11" style="edgeStyle=orthogonalEdgeStyle;rounded=0;orthogonalLoop=1;jettySize=auto;html=1;entryX=0.5;entryY=0;entryDx=0;entryDy=0;" edge="1" parent="1" source="4GGyOeaCrHXs-rgbViuF-2" target="HcaCUsrrjCbPK7TLqMKt-1">
          <mxGeometry relative="1" as="geometry" />
        </mxCell>
        <mxCell id="4GGyOeaCrHXs-rgbViuF-2" value="INICIO" style="rounded=1;whiteSpace=wrap;html=1;" parent="1" vertex="1">
          <mxGeometry x="354" y="270" width="120" height="40" as="geometry" />
        </mxCell>
        <mxCell id="4GGyOeaCrHXs-rgbViuF-3" value="FIM" style="rounded=1;whiteSpace=wrap;html=1;" parent="1" vertex="1">
          <mxGeometry x="340" y="1300" width="120" height="40" as="geometry" />
        </mxCell>
        <mxCell id="HcaCUsrrjCbPK7TLqMKt-12" style="edgeStyle=orthogonalEdgeStyle;rounded=0;orthogonalLoop=1;jettySize=auto;html=1;entryX=0.5;entryY=0;entryDx=0;entryDy=0;" edge="1" parent="1" source="HcaCUsrrjCbPK7TLqMKt-1" target="HcaCUsrrjCbPK7TLqMKt-2">
          <mxGeometry relative="1" as="geometry" />
        </mxCell>
        <mxCell id="HcaCUsrrjCbPK7TLqMKt-1" value="inProg = 0" style="rounded=0;whiteSpace=wrap;html=1;" vertex="1" parent="1">
          <mxGeometry x="354" y="350" width="120" height="40" as="geometry" />
        </mxCell>
        <mxCell id="HcaCUsrrjCbPK7TLqMKt-13" style="edgeStyle=orthogonalEdgeStyle;rounded=0;orthogonalLoop=1;jettySize=auto;html=1;entryX=0.5;entryY=0;entryDx=0;entryDy=0;" edge="1" parent="1" source="HcaCUsrrjCbPK7TLqMKt-2" target="HcaCUsrrjCbPK7TLqMKt-3">
          <mxGeometry relative="1" as="geometry" />
        </mxCell>
        <mxCell id="HcaCUsrrjCbPK7TLqMKt-2" value="Escreval &quot;Como se chama?&quot;" style="shape=parallelogram;perimeter=parallelogramPerimeter;whiteSpace=wrap;html=1;fixedSize=1;" vertex="1" parent="1">
          <mxGeometry x="296" y="420" width="236" height="40" as="geometry" />
        </mxCell>
        <mxCell id="HcaCUsrrjCbPK7TLqMKt-14" style="edgeStyle=orthogonalEdgeStyle;rounded=0;orthogonalLoop=1;jettySize=auto;html=1;entryX=0.5;entryY=0;entryDx=0;entryDy=0;" edge="1" parent="1" source="HcaCUsrrjCbPK7TLqMKt-3" target="HcaCUsrrjCbPK7TLqMKt-4">
          <mxGeometry relative="1" as="geometry" />
        </mxCell>
        <mxCell id="HcaCUsrrjCbPK7TLqMKt-3" value="Ler nome" style="shape=parallelogram;perimeter=parallelogramPerimeter;whiteSpace=wrap;html=1;fixedSize=1;" vertex="1" parent="1">
          <mxGeometry x="347" y="490" width="134" height="40" as="geometry" />
        </mxCell>
        <mxCell id="HcaCUsrrjCbPK7TLqMKt-15" style="edgeStyle=orthogonalEdgeStyle;rounded=0;orthogonalLoop=1;jettySize=auto;html=1;entryX=0.5;entryY=0;entryDx=0;entryDy=0;" edge="1" parent="1" source="HcaCUsrrjCbPK7TLqMKt-4" target="HcaCUsrrjCbPK7TLqMKt-5">
          <mxGeometry relative="1" as="geometry" />
        </mxCell>
        <mxCell id="HcaCUsrrjCbPK7TLqMKt-4" value="Escreval &quot;Qual é a sua idade?&quot;" style="shape=parallelogram;perimeter=parallelogramPerimeter;whiteSpace=wrap;html=1;fixedSize=1;" vertex="1" parent="1">
          <mxGeometry x="296" y="560" width="236" height="40" as="geometry" />
        </mxCell>
        <mxCell id="HcaCUsrrjCbPK7TLqMKt-16" style="edgeStyle=orthogonalEdgeStyle;rounded=0;orthogonalLoop=1;jettySize=auto;html=1;entryX=0.5;entryY=0;entryDx=0;entryDy=0;" edge="1" parent="1" source="HcaCUsrrjCbPK7TLqMKt-5" target="HcaCUsrrjCbPK7TLqMKt-6">
          <mxGeometry relative="1" as="geometry" />
        </mxCell>
        <mxCell id="HcaCUsrrjCbPK7TLqMKt-5" value="Ler idade" style="shape=parallelogram;perimeter=parallelogramPerimeter;whiteSpace=wrap;html=1;fixedSize=1;" vertex="1" parent="1">
          <mxGeometry x="347" y="630" width="134" height="40" as="geometry" />
        </mxCell>
        <mxCell id="HcaCUsrrjCbPK7TLqMKt-17" style="edgeStyle=orthogonalEdgeStyle;rounded=0;orthogonalLoop=1;jettySize=auto;html=1;entryX=0.5;entryY=0;entryDx=0;entryDy=0;" edge="1" parent="1" source="HcaCUsrrjCbPK7TLqMKt-6" target="HcaCUsrrjCbPK7TLqMKt-7">
          <mxGeometry relative="1" as="geometry" />
        </mxCell>
        <mxCell id="HcaCUsrrjCbPK7TLqMKt-6" value="Escreval&amp;nbsp;&quot;Olá senhor &quot;, nome, &quot; Quantos filhos tem?&quot;" style="shape=parallelogram;perimeter=parallelogramPerimeter;whiteSpace=wrap;html=1;fixedSize=1;" vertex="1" parent="1">
          <mxGeometry x="257" y="700" width="314" height="40" as="geometry" />
        </mxCell>
        <mxCell id="HcaCUsrrjCbPK7TLqMKt-18" style="edgeStyle=orthogonalEdgeStyle;rounded=0;orthogonalLoop=1;jettySize=auto;html=1;entryX=0.5;entryY=0;entryDx=0;entryDy=0;" edge="1" parent="1" source="HcaCUsrrjCbPK7TLqMKt-7" target="HcaCUsrrjCbPK7TLqMKt-8">
          <mxGeometry relative="1" as="geometry" />
        </mxCell>
        <mxCell id="HcaCUsrrjCbPK7TLqMKt-7" value="Ler numeroFilhos" style="shape=parallelogram;perimeter=parallelogramPerimeter;whiteSpace=wrap;html=1;fixedSize=1;" vertex="1" parent="1">
          <mxGeometry x="347" y="760" width="134" height="40" as="geometry" />
        </mxCell>
        <mxCell id="HcaCUsrrjCbPK7TLqMKt-24" style="edgeStyle=orthogonalEdgeStyle;rounded=0;orthogonalLoop=1;jettySize=auto;html=1;entryX=0.5;entryY=0;entryDx=0;entryDy=0;" edge="1" parent="1" source="HcaCUsrrjCbPK7TLqMKt-8" target="HcaCUsrrjCbPK7TLqMKt-22">
          <mxGeometry relative="1" as="geometry" />
        </mxCell>
        <mxCell id="HcaCUsrrjCbPK7TLqMKt-40" value="Falso" style="edgeLabel;html=1;align=center;verticalAlign=middle;resizable=0;points=[];" vertex="1" connectable="0" parent="HcaCUsrrjCbPK7TLqMKt-24">
          <mxGeometry x="-0.4418" y="2" relative="1" as="geometry">
            <mxPoint x="-6" y="-18" as="offset" />
          </mxGeometry>
        </mxCell>
        <mxCell id="HcaCUsrrjCbPK7TLqMKt-36" style="edgeStyle=orthogonalEdgeStyle;rounded=0;orthogonalLoop=1;jettySize=auto;html=1;entryX=0.5;entryY=0;entryDx=0;entryDy=0;" edge="1" parent="1" source="HcaCUsrrjCbPK7TLqMKt-8" target="HcaCUsrrjCbPK7TLqMKt-34">
          <mxGeometry relative="1" as="geometry">
            <Array as="points">
              <mxPoint x="280" y="890" />
              <mxPoint x="280" y="890" />
            </Array>
          </mxGeometry>
        </mxCell>
        <mxCell id="HcaCUsrrjCbPK7TLqMKt-41" value="Verdadeiro" style="edgeLabel;html=1;align=center;verticalAlign=middle;resizable=0;points=[];" vertex="1" connectable="0" parent="HcaCUsrrjCbPK7TLqMKt-36">
          <mxGeometry x="-0.5188" y="4" relative="1" as="geometry">
            <mxPoint x="-12" y="-24" as="offset" />
          </mxGeometry>
        </mxCell>
        <mxCell id="HcaCUsrrjCbPK7TLqMKt-8" value="inProg = numeroFilhos" style="rhombus;whiteSpace=wrap;html=1;" vertex="1" parent="1">
          <mxGeometry x="359.5" y="850" width="109" height="80" as="geometry" />
        </mxCell>
        <mxCell id="HcaCUsrrjCbPK7TLqMKt-25" style="edgeStyle=orthogonalEdgeStyle;rounded=0;orthogonalLoop=1;jettySize=auto;html=1;entryX=0.5;entryY=0;entryDx=0;entryDy=0;" edge="1" parent="1" source="HcaCUsrrjCbPK7TLqMKt-22" target="HcaCUsrrjCbPK7TLqMKt-23">
          <mxGeometry relative="1" as="geometry" />
        </mxCell>
        <mxCell id="HcaCUsrrjCbPK7TLqMKt-22" value="inProg = inProg + 1" style="rounded=0;whiteSpace=wrap;html=1;" vertex="1" parent="1">
          <mxGeometry x="500" y="930" width="120" height="40" as="geometry" />
        </mxCell>
        <mxCell id="HcaCUsrrjCbPK7TLqMKt-27" style="edgeStyle=orthogonalEdgeStyle;rounded=0;orthogonalLoop=1;jettySize=auto;html=1;entryX=0.5;entryY=0;entryDx=0;entryDy=0;" edge="1" parent="1" source="HcaCUsrrjCbPK7TLqMKt-23" target="HcaCUsrrjCbPK7TLqMKt-26">
          <mxGeometry relative="1" as="geometry" />
        </mxCell>
        <mxCell id="HcaCUsrrjCbPK7TLqMKt-23" value="Escreval(&quot;Qual é a idade do seu &quot;, inProg, &quot; filho?&quot;)" style="shape=parallelogram;perimeter=parallelogramPerimeter;whiteSpace=wrap;html=1;fixedSize=1;" vertex="1" parent="1">
          <mxGeometry x="403" y="1000" width="314" height="40" as="geometry" />
        </mxCell>
        <mxCell id="HcaCUsrrjCbPK7TLqMKt-28" style="edgeStyle=orthogonalEdgeStyle;rounded=0;orthogonalLoop=1;jettySize=auto;html=1;entryX=0.5;entryY=0;entryDx=0;entryDy=0;" edge="1" parent="1" source="HcaCUsrrjCbPK7TLqMKt-26" target="HcaCUsrrjCbPK7TLqMKt-8">
          <mxGeometry relative="1" as="geometry">
            <Array as="points">
              <mxPoint x="770" y="1090" />
              <mxPoint x="770" y="910" />
              <mxPoint x="670" y="910" />
              <mxPoint x="670" y="830" />
              <mxPoint x="414" y="830" />
            </Array>
          </mxGeometry>
        </mxCell>
        <mxCell id="HcaCUsrrjCbPK7TLqMKt-26" value="Ler idadeFilhos" style="shape=parallelogram;perimeter=parallelogramPerimeter;whiteSpace=wrap;html=1;fixedSize=1;" vertex="1" parent="1">
          <mxGeometry x="493" y="1070" width="134" height="40" as="geometry" />
        </mxCell>
        <mxCell id="HcaCUsrrjCbPK7TLqMKt-31" style="edgeStyle=orthogonalEdgeStyle;rounded=0;orthogonalLoop=1;jettySize=auto;html=1;entryX=0.5;entryY=0;entryDx=0;entryDy=0;" edge="1" parent="1" source="HcaCUsrrjCbPK7TLqMKt-29" target="HcaCUsrrjCbPK7TLqMKt-30">
          <mxGeometry relative="1" as="geometry" />
        </mxCell>
        <mxCell id="HcaCUsrrjCbPK7TLqMKt-29" value="idadeMedia &amp;lt;- (idadeFilhos / numeroFilhos)" style="rounded=0;whiteSpace=wrap;html=1;" vertex="1" parent="1">
          <mxGeometry x="41" y="1010" width="280" height="40" as="geometry" />
        </mxCell>
        <mxCell id="HcaCUsrrjCbPK7TLqMKt-32" style="edgeStyle=orthogonalEdgeStyle;rounded=0;orthogonalLoop=1;jettySize=auto;html=1;entryX=0.5;entryY=0;entryDx=0;entryDy=0;" edge="1" parent="1" source="HcaCUsrrjCbPK7TLqMKt-30" target="4GGyOeaCrHXs-rgbViuF-3">
          <mxGeometry relative="1" as="geometry" />
        </mxCell>
        <mxCell id="HcaCUsrrjCbPK7TLqMKt-30" value="Escreval(&quot;A idade média dos seus filhos é &quot;, idadeMedia)" style="shape=parallelogram;perimeter=parallelogramPerimeter;whiteSpace=wrap;html=1;fixedSize=1;" vertex="1" parent="1">
          <mxGeometry x="2.5" y="1080" width="357" height="40" as="geometry" />
        </mxCell>
        <mxCell id="HcaCUsrrjCbPK7TLqMKt-35" style="edgeStyle=orthogonalEdgeStyle;rounded=0;orthogonalLoop=1;jettySize=auto;html=1;entryX=0.5;entryY=0;entryDx=0;entryDy=0;" edge="1" parent="1" source="HcaCUsrrjCbPK7TLqMKt-34" target="HcaCUsrrjCbPK7TLqMKt-29">
          <mxGeometry relative="1" as="geometry" />
        </mxCell>
        <mxCell id="HcaCUsrrjCbPK7TLqMKt-37" value="Verdadeiro" style="edgeLabel;html=1;align=center;verticalAlign=middle;resizable=0;points=[];" vertex="1" connectable="0" parent="HcaCUsrrjCbPK7TLqMKt-35">
          <mxGeometry x="0.1608" y="-2" relative="1" as="geometry">
            <mxPoint x="74" y="-5" as="offset" />
          </mxGeometry>
        </mxCell>
        <mxCell id="HcaCUsrrjCbPK7TLqMKt-38" style="edgeStyle=orthogonalEdgeStyle;rounded=0;orthogonalLoop=1;jettySize=auto;html=1;entryX=0.5;entryY=0;entryDx=0;entryDy=0;" edge="1" parent="1" source="HcaCUsrrjCbPK7TLqMKt-34" target="HcaCUsrrjCbPK7TLqMKt-6">
          <mxGeometry relative="1" as="geometry">
            <Array as="points">
              <mxPoint x="40" y="950" />
              <mxPoint x="40" y="800" />
              <mxPoint x="220" y="800" />
              <mxPoint x="220" y="680" />
              <mxPoint x="414" y="680" />
            </Array>
          </mxGeometry>
        </mxCell>
        <mxCell id="HcaCUsrrjCbPK7TLqMKt-39" value="Falso" style="edgeLabel;html=1;align=center;verticalAlign=middle;resizable=0;points=[];" vertex="1" connectable="0" parent="HcaCUsrrjCbPK7TLqMKt-38">
          <mxGeometry x="-0.8744" y="2" relative="1" as="geometry">
            <mxPoint y="-22" as="offset" />
          </mxGeometry>
        </mxCell>
        <mxCell id="HcaCUsrrjCbPK7TLqMKt-34" value="numeroFilhos &amp;lt;&amp;gt; 0" style="rhombus;whiteSpace=wrap;html=1;" vertex="1" parent="1">
          <mxGeometry x="126.5" y="910" width="109" height="80" as="geometry" />
        </mxCell>
      </root>
    </mxGraphModel>
  </diagram>
</mxfile>
